<?xml version="1.0" standalone="no"?>
<!DOCTYPE svg PUBLIC "-//W3C//DTD SVG 20010904//EN"
 "http://www.w3.org/TR/2001/REC-SVG-20010904/DTD/svg10.dtd">
<svg version="1.0" xmlns="http://www.w3.org/2000/svg"
 width="250.000000pt" height="250.000000pt" viewBox="0 0 250.000000 250.000000"
 preserveAspectRatio="xMidYMid meet">
<metadata>
Created by potrace 1.11, written by Peter Selinger 2001-2013
</metadata>
<g transform="translate(0.000000,250.000000) scale(0.100000,-0.100000)"
fill="#000000" stroke="none">
<path d="M1164 2271 c9 -10 18 -32 21 -50 6 -53 -70 -113 -126 -98 -16 4 -19
2 -14 -16 4 -14 3 -17 -2 -10 -5 7 -20 11 -33 9 -14 -2 -50 -7 -80 -11 -30 -3
-70 -15 -88 -26 -33 -19 -33 -19 -27 1 9 27 2 25 -40 -12 l-36 -31 -36 17 -35
17 20 -35 c46 -79 3 -120 -175 -169 -90 -25 -173 -62 -173 -79 0 -4 -24 -23
-53 -41 -56 -36 -148 -131 -173 -179 -30 -58 -43 -121 -40 -197 2 -81 18 -124
64 -173 35 -37 8 -36 -29 1 -28 28 -29 29 -29 7 0 -37 30 -127 63 -189 37 -71
124 -161 200 -210 60 -38 175 -90 223 -101 29 -6 29 -7 29 -79 0 -79 24 -167
57 -207 14 -17 18 -19 14 -7 -3 11 8 3 28 -17 62 -66 222 -118 334 -109 39 3
61 -2 109 -26 97 -48 102 -48 193 0 44 24 112 67 151 97 76 58 89 59 133 15
55 -55 14 -128 -60 -105 -38 11 -43 5 -15 -20 72 -61 238 -32 328 57 55 54 85
189 59 265 -15 45 -14 47 10 23 16 -16 16 -16 9 6 -4 15 -3 21 3 17 5 -3 51 1
102 10 89 15 93 15 143 -5 71 -28 125 -35 175 -22 64 18 52 64 -19 74 -34 4
-149 70 -149 85 0 5 4 12 9 18 6 5 17 27 27 49 16 40 16 40 -3 22 -26 -23 -58
-29 -91 -16 -31 12 -92 68 -92 85 0 6 -13 37 -28 68 -16 31 -25 56 -20 56 4 0
8 -4 8 -9 0 -5 7 -12 16 -15 11 -4 10 2 -6 25 -37 52 -129 99 -193 99 -26 0
-29 3 -23 23 3 12 6 37 6 55 l0 34 75 -41 c72 -40 77 -41 118 -30 68 18 73 28
32 62 -41 34 -75 94 -75 134 0 21 12 38 47 68 172 148 207 216 189 370 -2 17
-5 37 -5 45 -1 12 -4 11 -12 -3 -27 -46 -113 -53 -195 -16 -23 10 -55 20 -71
21 -23 2 -29 7 -31 27 -3 37 -23 82 -33 75 -5 -3 -9 3 -9 13 0 44 -68 121
-137 156 l-32 17 9 -28 c10 -37 -10 -85 -45 -108 -54 -35 -177 -52 -131 -18
16 11 12 13 -28 19 -25 4 -57 5 -70 3 -23 -5 -24 -2 -24 52 0 69 -21 119 -70
161 -40 35 -80 54 -130 62 -32 5 -33 5 -18 -12z m-107 -213 c-3 -8 -6 -5 -6 6
-1 11 2 17 5 13 3 -3 4 -12 1 -19z"/>
</g>
</svg>
